<mxfile host="65bd71144e">
    <diagram id="4MKmfktMwuYXlTs8W7bY" name="Page-1">
        <mxGraphModel dx="2337" dy="1617" grid="0" gridSize="10" guides="1" tooltips="1" connect="1" arrows="1" fold="1" page="0" pageScale="1" pageWidth="827" pageHeight="1169" math="0" shadow="0">
            <root>
                <mxCell id="0"/>
                <mxCell id="1" parent="0"/>
                <mxCell id="19" value="" style="rounded=0;whiteSpace=wrap;html=1;fillColor=#CCFFFF;strokeColor=#009999;strokeWidth=3;fontSize=18;" parent="1" vertex="1">
                    <mxGeometry x="-423" y="-206" width="420" height="180" as="geometry"/>
                </mxCell>
                <mxCell id="5" value="" style="whiteSpace=wrap;html=1;fillColor=#1ba1e2;fontColor=#ffffff;strokeColor=#006EAF;strokeWidth=4;" parent="1" vertex="1">
                    <mxGeometry x="107" y="-275" width="444" height="250" as="geometry"/>
                </mxCell>
                <mxCell id="2" value="" style="rounded=0;whiteSpace=wrap;html=1;fillColor=#6a00ff;fontColor=#ffffff;strokeColor=#3700CC;" parent="1" vertex="1">
                    <mxGeometry x="122" y="-207.5" width="240" height="117" as="geometry"/>
                </mxCell>
                <mxCell id="3" value="Login&lt;br&gt;" style="text;html=1;align=center;verticalAlign=middle;resizable=0;points=[];autosize=1;strokeColor=none;fillColor=none;" parent="1" vertex="1">
                    <mxGeometry x="315" y="-232" width="39" height="18" as="geometry"/>
                </mxCell>
                <mxCell id="14" style="edgeStyle=none;html=1;exitX=0;exitY=0.5;exitDx=0;exitDy=0;fontColor=#000000;" parent="1" source="17" target="11" edge="1">
                    <mxGeometry relative="1" as="geometry"/>
                </mxCell>
                <mxCell id="35" style="edgeStyle=none;html=1;exitX=0;exitY=0.5;exitDx=0;exitDy=0;fontColor=#000000;strokeWidth=2;fillColor=#1ba1e2;strokeColor=#006EAF;" parent="1" source="17" target="20" edge="1">
                    <mxGeometry relative="1" as="geometry">
                        <Array as="points">
                            <mxPoint x="583" y="-335"/>
                            <mxPoint x="583" y="100"/>
                            <mxPoint x="-208" y="100"/>
                        </Array>
                    </mxGeometry>
                </mxCell>
                <mxCell id="4" value="Forgot Password" style="rounded=0;whiteSpace=wrap;html=1;fillColor=#60a917;fontColor=#ffffff;strokeColor=#2D7600;shadow=0;glass=0;" parent="1" vertex="1">
                    <mxGeometry x="180" y="-180" width="120" height="60" as="geometry"/>
                </mxCell>
                <mxCell id="6" value="presentation" style="text;html=1;align=center;verticalAlign=middle;resizable=0;points=[];autosize=1;strokeColor=none;fillColor=none;" parent="1" vertex="1">
                    <mxGeometry x="475" y="-301" width="76" height="18" as="geometry"/>
                </mxCell>
                <mxCell id="9" value="" style="whiteSpace=wrap;html=1;fillColor=#cdeb8b;strokeColor=#36393d;" parent="1" vertex="1">
                    <mxGeometry x="154.5" y="-490" width="360" height="150" as="geometry"/>
                </mxCell>
                <mxCell id="10" value="Validation&lt;br&gt;" style="text;html=1;align=center;verticalAlign=middle;resizable=0;points=[];autosize=1;strokeColor=none;fillColor=none;" parent="1" vertex="1">
                    <mxGeometry x="452.5" y="-517" width="62" height="18" as="geometry"/>
                </mxCell>
                <mxCell id="11" value="&lt;font color=&quot;#000000&quot;&gt;Validation&lt;/font&gt;" style="rounded=1;whiteSpace=wrap;html=1;fillColor=#d0cee2;strokeColor=#56517e;dashed=1;" parent="1" vertex="1">
                    <mxGeometry x="401" y="-185.5" width="120" height="60" as="geometry"/>
                </mxCell>
                <mxCell id="18" value="" style="rounded=0;whiteSpace=wrap;html=1;fillColor=#99FF99;strokeColor=#009900;strokeWidth=3;fontSize=18;" parent="1" vertex="1">
                    <mxGeometry x="-423" y="-436" width="420" height="185" as="geometry"/>
                </mxCell>
                <mxCell id="20" value="&lt;font style=&quot;font-size: 18px&quot; color=&quot;#000000&quot;&gt;Forgot&lt;/font&gt;" style="rounded=1;whiteSpace=wrap;html=1;strokeColor=#007FFF;dashed=1;strokeWidth=2;fillColor=#FFFFFF;" parent="1" vertex="1">
                    <mxGeometry x="-288" y="-143.5" width="150" height="55" as="geometry"/>
                </mxCell>
                <mxCell id="21" value="Domain" style="text;html=1;strokeColor=none;fillColor=none;align=center;verticalAlign=middle;whiteSpace=wrap;rounded=0;fontSize=18;" parent="1" vertex="1">
                    <mxGeometry x="-68" y="-239" width="60" height="30" as="geometry"/>
                </mxCell>
                <mxCell id="22" style="edgeStyle=orthogonalEdgeStyle;rounded=0;orthogonalLoop=1;jettySize=auto;html=1;exitX=0.5;exitY=1;exitDx=0;exitDy=0;fontSize=18;strokeWidth=3;fillColor=#d5e8d4;strokeColor=#009900;" parent="1" source="24" target="20" edge="1">
                    <mxGeometry relative="1" as="geometry"/>
                </mxCell>
                <mxCell id="23" style="edgeStyle=orthogonalEdgeStyle;rounded=0;orthogonalLoop=1;jettySize=auto;html=1;exitX=0;exitY=0.5;exitDx=0;exitDy=0;fontSize=18;strokeColor=#009900;strokeWidth=3;" parent="1" source="24" target="26" edge="1">
                    <mxGeometry relative="1" as="geometry"/>
                </mxCell>
                <mxCell id="24" value="&lt;font style=&quot;font-size: 18px&quot; color=&quot;#000000&quot;&gt;RemoteForgotPassword&lt;/font&gt;" style="rounded=0;whiteSpace=wrap;html=1;strokeColor=#3B522E;strokeWidth=3;fillColor=#FFFFFF;" parent="1" vertex="1">
                    <mxGeometry x="-230" y="-369.75" width="215" height="56.25" as="geometry"/>
                </mxCell>
                <mxCell id="25" value="Data&lt;br&gt;" style="text;html=1;strokeColor=none;fillColor=none;align=center;verticalAlign=middle;whiteSpace=wrap;rounded=0;fontSize=18;" parent="1" vertex="1">
                    <mxGeometry x="-66" y="-469" width="60" height="30" as="geometry"/>
                </mxCell>
                <mxCell id="26" value="&lt;font style=&quot;font-size: 18px&quot; color=&quot;#000000&quot;&gt;HttpClient&lt;/font&gt;" style="rounded=1;whiteSpace=wrap;html=1;strokeColor=#009900;dashed=1;strokeWidth=2;fillColor=#FFFFFF;" parent="1" vertex="1">
                    <mxGeometry x="-407" y="-369.75" width="150" height="55" as="geometry"/>
                </mxCell>
                <mxCell id="27" value="" style="rounded=0;whiteSpace=wrap;html=1;fillColor=#FF99CC;strokeColor=#99004D;strokeWidth=3;fontSize=18;" parent="1" vertex="1">
                    <mxGeometry x="-423" y="-666" width="420" height="185" as="geometry"/>
                </mxCell>
                <mxCell id="28" style="edgeStyle=orthogonalEdgeStyle;rounded=0;orthogonalLoop=1;jettySize=auto;html=1;exitX=0;exitY=0.5;exitDx=0;exitDy=0;fontSize=18;strokeColor=#B5739D;strokeWidth=3;" parent="1" source="30" target="32" edge="1">
                    <mxGeometry relative="1" as="geometry"/>
                </mxCell>
                <mxCell id="29" style="edgeStyle=orthogonalEdgeStyle;rounded=0;orthogonalLoop=1;jettySize=auto;html=1;exitX=0.5;exitY=1;exitDx=0;exitDy=0;fontSize=18;strokeColor=#B5739D;strokeWidth=3;" parent="1" source="30" target="26" edge="1">
                    <mxGeometry relative="1" as="geometry"/>
                </mxCell>
                <mxCell id="30" value="&lt;font style=&quot;font-size: 18px&quot; color=&quot;#000000&quot;&gt;AxiosHttpClient&lt;/font&gt;" style="rounded=0;whiteSpace=wrap;html=1;strokeColor=#B5739D;strokeWidth=3;fillColor=#FFFFFF;" parent="1" vertex="1">
                    <mxGeometry x="-320.5" y="-599.75" width="215" height="53.75" as="geometry"/>
                </mxCell>
                <mxCell id="31" value="Infra" style="text;html=1;strokeColor=none;fillColor=none;align=center;verticalAlign=middle;whiteSpace=wrap;rounded=0;fontSize=18;" parent="1" vertex="1">
                    <mxGeometry x="141" y="285" width="60" height="30" as="geometry"/>
                </mxCell>
                <mxCell id="32" value="&lt;font style=&quot;font-size: 18px&quot; color=&quot;#000000&quot;&gt;Axios&lt;/font&gt;" style="rounded=0;whiteSpace=wrap;html=1;strokeColor=#333333;fillColor=#CCCCCC;" parent="1" vertex="1">
                    <mxGeometry x="-643" y="-601" width="150" height="55" as="geometry"/>
                </mxCell>
                <mxCell id="34" style="edgeStyle=none;html=1;exitX=0.75;exitY=1;exitDx=0;exitDy=0;fontColor=#FFFFFF;entryX=0.5;entryY=0;entryDx=0;entryDy=0;" parent="1" source="33" target="11" edge="1">
                    <mxGeometry relative="1" as="geometry"/>
                </mxCell>
                <mxCell id="33" value="&lt;font color=&quot;#000000&quot;&gt;EmailValidation&lt;/font&gt;" style="whiteSpace=wrap;html=1;rounded=0;shadow=0;glass=0;strokeWidth=4;fillColor=#cce5ff;strokeColor=#36393d;" parent="1" vertex="1">
                    <mxGeometry x="274.5" y="-445" width="120" height="60" as="geometry"/>
                </mxCell>
                <mxCell id="38" value="" style="group;fillColor=#60a917;fontColor=#ffffff;strokeColor=#2D7600;" parent="1" vertex="1" connectable="0">
                    <mxGeometry x="645" y="-636" width="192" height="564" as="geometry"/>
                </mxCell>
                <mxCell id="15" value="" style="whiteSpace=wrap;html=1;rounded=0;shadow=0;fillColor=#ffff88;strokeColor=#36393d;" parent="38" vertex="1">
                    <mxGeometry y="24" width="192" height="540" as="geometry"/>
                </mxCell>
                <mxCell id="16" value="&lt;font color=&quot;#ffffff&quot;&gt;main&lt;/font&gt;" style="text;html=1;align=center;verticalAlign=middle;resizable=0;points=[];autosize=1;strokeColor=none;fillColor=none;fontColor=#000000;" parent="38" vertex="1">
                    <mxGeometry x="156" width="36" height="18" as="geometry"/>
                </mxCell>
                <mxCell id="39" value="" style="group" parent="38" vertex="1" connectable="0">
                    <mxGeometry x="26" y="157" width="163" height="268" as="geometry"/>
                </mxCell>
                <mxCell id="36" value="" style="whiteSpace=wrap;html=1;rounded=0;shadow=0;glass=0;fontColor=#ffffff;fillColor=#6a00ff;strokeColor=#3700CC;" parent="39" vertex="1">
                    <mxGeometry width="148" height="268" as="geometry"/>
                </mxCell>
                <mxCell id="17" value="ForgotPasswordFactory" style="whiteSpace=wrap;html=1;rounded=0;shadow=0;glass=0;fontColor=#ffffff;fillColor=#60a917;strokeColor=#2D7600;sketch=0;absoluteArcSize=0;noLabel=0;portConstraintRotation=0;fixDash=0;autosize=0;container=0;dropTarget=0;collapsible=0;expand=1;recursiveResize=1;part=0;metaEdit=0;backgroundOutline=0;resizeWidth=0;resizeHeight=0;" parent="39" vertex="1">
                    <mxGeometry x="9" y="109" width="130" height="70" as="geometry">
                        <mxRectangle x="9" y="109" width="154" height="18" as="alternateBounds"/>
                    </mxGeometry>
                </mxCell>
                <mxCell id="41" value="" style="whiteSpace=wrap;html=1;rounded=0;shadow=0;glass=0;comic=0;sketch=0;jiggle=39;fontColor=#ffffff;fillColor=#60a917;strokeColor=#2D7600;" parent="39" vertex="1">
                    <mxGeometry x="2" y="119" width="27" height="13" as="geometry"/>
                </mxCell>
                <mxCell id="42" value="" style="whiteSpace=wrap;html=1;rounded=0;shadow=0;glass=0;comic=0;sketch=0;jiggle=39;fontColor=#ffffff;fillColor=#60a917;strokeColor=#2D7600;" parent="39" vertex="1">
                    <mxGeometry x="2" y="155" width="27" height="13" as="geometry"/>
                </mxCell>
                <mxCell id="40" value="&lt;font color=&quot;#000000&quot;&gt;LoginFactory&lt;/font&gt;" style="text;html=1;align=center;verticalAlign=middle;resizable=0;points=[];autosize=1;strokeColor=none;fillColor=none;" parent="38" vertex="1">
                    <mxGeometry x="95" y="129" width="79" height="18" as="geometry"/>
                </mxCell>
            </root>
        </mxGraphModel>
    </diagram>
</mxfile>
